# xmcd
#
# Track frame offsets: 
#        150
#        13213
#        27027
#        36761
#        53874
#        68300
#        83962
#        97701
#        117296
#        129157
#
# Disc length: 1865 seconds
#
# Revision: 0
# Processed by: cddbd v1.5.2PL0 Copyright (c) Steve Scherf et al.
# Submitted via: ExactAudioCopyFreeDBPlugin 1.0
#
DISCID=6d07470a
DTITLE=Huntley Slim and the Suburban Cowboys - Songs From This Chicken C
DTITLE=oop
DYEAR=2009
DGENRE=Alternative
TTITLE0=Bottom Floor
TTITLE1=Suburban Blues
TTITLE2=Get Me Higher
TTITLE3=Good Old Days
TTITLE4=Up and Down the Lakes
TTITLE5=Let Things Slide
TTITLE6=Usual Threads
TTITLE7=Slow Sad Heartbreaking Song
TTITLE8=Railroader's Lament
TTITLE9=Have You Ever...?
EXTD=
EXTT0=
EXTT1=
EXTT2=
EXTT3=
EXTT4=
EXTT5=
EXTT6=
EXTT7=
EXTT8=
EXTT9=
PLAYORDER=
